<svg width="162" height="54" viewBox="0 0 162 54" fill="none" xmlns="http://www.w3.org/2000/svg">
<rect width="162" height="54" rx="8.1" fill="black"/>
<path d="M33.3511 28.03C33.3675 26.7882 33.7053 25.5705 34.3333 24.4904C34.9612 23.4102 35.8588 22.5027 36.9425 21.8523C36.254 20.8924 35.3458 20.1024 34.2899 19.5451C33.2341 18.9878 32.0597 18.6786 30.86 18.6419C28.3008 18.3797 25.8198 20.137 24.5157 20.137C23.1863 20.137 21.1785 18.668 19.0163 18.7114C17.6178 18.7555 16.2548 19.1525 15.0602 19.8638C13.8655 20.5751 12.88 21.5764 12.1996 22.7701C9.25225 27.7521 11.4507 35.0741 14.2741 39.1012C15.6867 41.0732 17.3376 43.2759 19.4978 43.1978C21.6117 43.1122 22.4011 41.8818 24.9528 41.8818C27.4807 41.8818 28.2214 43.1978 30.4255 43.1481C32.6938 43.1122 34.1229 41.1674 35.4859 39.1768C36.5009 37.7717 37.2819 36.2187 37.8 34.5755C36.4822 34.0313 35.3576 33.1205 34.5664 31.9565C33.7753 30.7925 33.3526 29.427 33.3511 28.03Z" fill="white"/>
<path d="M29.1881 15.9934C30.4249 14.5439 31.0342 12.6808 30.8866 10.7998C28.9971 10.9936 27.2518 11.8752 25.9983 13.2691C25.3854 13.95 24.916 14.7422 24.617 15.6004C24.3179 16.4586 24.195 17.3659 24.2553 18.2704C25.2004 18.2799 26.1353 18.0799 26.9898 17.6855C27.8442 17.2911 28.5959 16.7126 29.1881 15.9934Z" fill="white"/>
<path d="M51.1925 11.4548H53.9042C56.2474 11.4548 57.3873 12.8481 57.3873 15.3755C57.3873 17.9029 56.2359 19.3135 53.9042 19.3135H51.1925V11.4548ZM52.4994 12.5544V18.2138H53.7603C55.3147 18.2138 56.0459 17.2754 56.0459 15.3928C56.0459 13.4986 55.309 12.5544 53.7603 12.5544H52.4994ZM61.5211 13.1244C63.1101 13.1244 64.2212 14.155 64.2212 15.8649V16.6536C64.2212 18.4211 63.1101 19.4171 61.5211 19.4171C59.909 19.4171 58.8094 18.4326 58.8094 16.6594V15.8706C58.8094 14.2068 59.9263 13.1244 61.5211 13.1244ZM61.5268 14.155C60.6172 14.155 60.099 14.9149 60.099 15.934V16.6133C60.099 17.6324 60.5826 18.3866 61.5268 18.3866C62.4595 18.3866 62.9373 17.6381 62.9373 16.6133V15.934C62.9373 14.9149 62.4365 14.155 61.5268 14.155ZM73.6055 13.228L72.005 19.3135H70.7039L69.4315 14.8228H69.397L68.1477 19.3135H66.8408L65.1712 13.228H66.5471L67.5259 17.8684H67.5834L68.8097 13.228H70.013L71.2739 17.8684H71.3314L72.3274 13.228H73.6055ZM74.8721 19.3135V13.228H76.1272V14.3219H76.1906C76.346 13.8441 76.7893 13.1359 78.0214 13.1359C79.2477 13.1359 80.071 13.8153 80.071 15.2028V19.3135H78.7928V15.577C78.7928 14.6501 78.3092 14.2241 77.5896 14.2241C76.6454 14.2241 76.1503 14.9495 76.1503 15.934V19.3135H74.8721ZM82.0054 19.3135V11.0403H83.2835V19.3135H82.0054ZM87.6705 13.1244C89.2595 13.1244 90.3707 14.155 90.3707 15.8649V16.6536C90.3707 18.4211 89.2595 19.4171 87.6705 19.4171C86.0585 19.4171 84.9589 18.4326 84.9589 16.6594V15.8706C84.9589 14.2068 86.0758 13.1244 87.6705 13.1244ZM87.6763 14.155C86.7667 14.155 86.2485 14.9149 86.2485 15.934V16.6133C86.2485 17.6324 86.7321 18.3866 87.6763 18.3866C88.609 18.3866 89.0868 17.6381 89.0868 16.6133V15.934C89.0868 14.9149 88.5859 14.155 87.6763 14.155ZM93.6811 19.4056C92.5009 19.4056 91.6891 18.6802 91.6891 17.546C91.6891 16.4694 92.4376 15.744 93.8423 15.744H95.3795V15.174C95.3795 14.4774 94.9362 14.1492 94.2338 14.1492C93.543 14.1492 93.2321 14.4371 93.1342 14.8401H91.9194C91.9942 13.821 92.76 13.1359 94.2741 13.1359C95.5753 13.1359 96.6519 13.6771 96.6519 15.1913V19.3135H95.4371V18.5247H95.3795C95.1089 18.9911 94.5793 19.4056 93.6811 19.4056ZM94.0784 18.4153C94.8038 18.4153 95.3795 17.9202 95.3795 17.2581V16.6018H94.0438C93.3011 16.6018 92.973 16.976 92.973 17.4827C92.973 18.116 93.5026 18.4153 94.0784 18.4153ZM100.59 13.1474C101.448 13.1474 102.104 13.5274 102.34 14.1435H102.403V11.0403H103.681V19.3135H102.438V18.3405H102.375C102.19 18.9565 101.459 19.3941 100.573 19.3941C99.1736 19.3941 98.2639 18.3981 98.2639 16.7918V15.7497C98.2639 14.1435 99.1908 13.1474 100.59 13.1474ZM100.947 14.1953C100.095 14.1953 99.565 14.8286 99.565 15.934V16.6018C99.565 17.713 100.1 18.3463 100.976 18.3463C101.839 18.3463 102.403 17.7187 102.403 16.6824V15.7612C102.403 14.8228 101.787 14.1953 100.947 14.1953ZM110.7 13.1244C112.289 13.1244 113.4 14.155 113.4 15.8649V16.6536C113.4 18.4211 112.289 19.4171 110.7 19.4171C109.088 19.4171 107.988 18.4326 107.988 16.6594V15.8706C107.988 14.2068 109.105 13.1244 110.7 13.1244ZM110.705 14.155C109.796 14.155 109.278 14.9149 109.278 15.934V16.6133C109.278 17.6324 109.761 18.3866 110.705 18.3866C111.638 18.3866 112.116 17.6381 112.116 16.6133V15.934C112.116 14.9149 111.615 14.155 110.705 14.155ZM115.046 19.3135V13.228H116.301V14.3219H116.365C116.52 13.8441 116.963 13.1359 118.196 13.1359C119.422 13.1359 120.245 13.8153 120.245 15.2028V19.3135H118.967V15.577C118.967 14.6501 118.483 14.2241 117.764 14.2241C116.82 14.2241 116.324 14.9495 116.324 15.934V19.3135H115.046ZM125.191 13.2683V11.7484H126.44V13.2683H127.804V14.2701H126.44V17.4999C126.44 18.162 126.688 18.3463 127.373 18.3463C127.545 18.3463 127.776 18.3347 127.874 18.3232V19.302C127.77 19.3192 127.344 19.3538 127.056 19.3538C125.576 19.3538 125.173 18.8241 125.173 17.6036V14.2701H124.246V13.2683H125.191ZM129.416 19.3135V11.0403H130.689V14.3219H130.752C130.885 13.8901 131.38 13.1359 132.6 13.1359C133.786 13.1359 134.633 13.821 134.633 15.2085V19.3135H133.36V15.5828C133.36 14.6559 132.848 14.2241 132.122 14.2241C131.207 14.2241 130.689 14.9437 130.689 15.934V19.3135H129.416ZM138.922 19.4171C137.264 19.4171 136.233 18.3981 136.233 16.6824V15.8591C136.233 14.1319 137.361 13.1244 138.847 13.1244C140.373 13.1244 141.449 14.1838 141.449 15.8591V16.573H137.5V16.8724C137.5 17.7475 138.018 18.3923 138.916 18.3923C139.584 18.3923 140.044 18.0757 140.131 17.6957H141.38C141.305 18.3981 140.563 19.4171 138.922 19.4171ZM137.5 15.7382H140.2V15.6576C140.2 14.7422 139.664 14.1319 138.853 14.1319C138.041 14.1319 137.5 14.7422 137.5 15.6576V15.7382Z" fill="white"/>
<path d="M53.0464 41.1045H50.3865L55.7983 25.3872H58.723L64.1233 41.1045H61.3598L59.9666 36.752H54.4511L53.0464 41.1045ZM57.2722 28.1046H57.1686L55.0384 34.7485H59.3793L57.2722 28.1046ZM71.4641 41.2772C69.8866 41.2772 68.6891 40.5288 68.0443 39.4119H67.9522V45.1461H65.396V28.9336H67.8831V30.7184H67.9752C68.6431 29.5554 69.8866 28.7724 71.5217 28.7724C74.2506 28.7724 76.1966 30.8335 76.1966 34.4721V35.5545C76.1966 39.1701 74.2737 41.2772 71.4641 41.2772ZM70.8769 39.1701C72.5004 39.1701 73.6058 37.8689 73.6058 35.4163V34.5642C73.6058 32.2038 72.5695 30.8566 70.8308 30.8566C69.0461 30.8566 67.9292 32.3074 67.9292 34.5527V35.4163C67.9292 37.7192 69.0576 39.1701 70.8769 39.1701ZM84.4586 41.2772C82.8811 41.2772 81.6836 40.5288 81.0387 39.4119H80.9466V45.1461H78.3904V28.9336H80.8775V30.7184H80.9697C81.6375 29.5554 82.8811 28.7724 84.5161 28.7724C87.2451 28.7724 89.191 30.8335 89.191 34.4721V35.5545C89.191 39.1701 87.2681 41.2772 84.4586 41.2772ZM83.8713 39.1701C85.4949 39.1701 86.6003 37.8689 86.6003 35.4163V34.5642C86.6003 32.2038 85.5639 30.8566 83.8253 30.8566C82.0405 30.8566 80.9236 32.3074 80.9236 34.5527V35.4163C80.9236 37.7192 82.052 39.1701 83.8713 39.1701ZM94.4883 36.7405H97.0445C97.1596 38.0992 98.3571 39.2622 100.579 39.2622C102.618 39.2622 103.827 38.3065 103.827 36.8211C103.827 35.6236 103.021 34.9788 101.339 34.5758L98.7602 33.9309C96.7336 33.4588 94.9143 32.2498 94.9143 29.6936C94.9143 26.6883 97.5396 25.0417 100.591 25.0417C103.642 25.0417 106.187 26.6883 106.245 29.6245H103.734C103.619 28.2888 102.594 27.1834 100.556 27.1834C98.7602 27.1834 97.5396 28.0355 97.5396 29.4978C97.5396 30.5226 98.2535 31.2596 99.7159 31.5935L102.284 32.2268C104.644 32.8025 106.44 33.9194 106.44 36.5908C106.44 39.6767 103.942 41.4154 100.384 41.4154C96.0082 41.4154 94.5458 38.8592 94.4883 36.7405ZM109.555 28.9336V25.9744H112.065V28.9336H114.437V30.9832H112.065V37.4774C112.065 38.8016 112.561 39.1701 113.931 39.1701C114.15 39.1701 114.357 39.1701 114.507 39.147V41.1045C114.299 41.139 113.816 41.1851 113.298 41.1851C110.338 41.1851 109.521 40.1258 109.521 37.6847V30.9832H107.84V28.9336H109.555ZM121.341 28.7264C124.841 28.7264 126.741 31.1905 126.741 34.5067V35.4854C126.741 38.9167 124.853 41.3118 121.341 41.3118C117.829 41.3118 115.917 38.9167 115.917 35.4854V34.5067C115.917 31.202 117.84 28.7264 121.341 28.7264ZM121.341 30.776C119.441 30.776 118.497 32.3304 118.497 34.5412V35.4739C118.497 37.6501 119.429 39.2507 121.341 39.2507C123.252 39.2507 124.173 37.6616 124.173 35.4739V34.5412C124.173 32.3189 123.241 30.776 121.341 30.776ZM128.9 41.1045V28.9336H131.456V30.5342H131.549C131.86 29.7742 132.769 28.7609 134.462 28.7609C134.796 28.7609 135.084 28.7839 135.325 28.83V31.0869C135.107 31.0293 134.658 30.9947 134.231 30.9947C132.182 30.9947 131.491 32.2613 131.491 33.8964V41.1045H128.9ZM141.526 41.3118C138.268 41.3118 136.195 39.1585 136.195 35.5545V34.3224C136.195 30.9257 138.222 28.7264 141.423 28.7264C144.67 28.7264 146.627 31.0063 146.627 34.4376V35.6005H138.717V35.8884C138.717 37.938 139.822 39.2967 141.561 39.2967C142.862 39.2967 143.749 38.6519 144.059 37.6041H146.489C146.121 39.5731 144.532 41.3118 141.526 41.3118ZM138.717 33.8158H144.129V33.7928C144.129 32.0656 143.058 30.7069 141.434 30.7069C139.788 30.7069 138.717 32.0656 138.717 33.7928V33.8158Z" fill="white"/>
</svg>
