<svg width="162" height="54" viewBox="0 0 162 54" fill="none" xmlns="http://www.w3.org/2000/svg">
<rect width="162" height="54" rx="8.1" fill="black"/>
<path d="M24.0365 26.273L10.921 40.5077C10.9222 40.5102 10.9222 40.514 10.9234 40.5165C11.3262 42.0622 12.7059 43.1997 14.3443 43.1997C14.9996 43.1997 15.6143 43.0183 16.1416 42.7009L16.1834 42.6757L30.946 33.9648L24.0365 26.273Z" fill="#EA4335"/>
<path d="M37.3047 23.8492L37.2924 23.8403L30.9188 20.0625L23.7383 26.5966L30.9446 33.9634L37.2837 30.2233C38.3949 29.6086 39.15 28.4106 39.15 27.0299C39.15 25.6568 38.406 24.4652 37.3047 23.8492Z" fill="#FBBC04"/>
<path d="M10.9207 13.4908C10.8419 13.7881 10.8 14.1005 10.8 14.423V39.5769C10.8 39.8994 10.8419 40.2118 10.922 40.5078L24.4871 26.6371L10.9207 13.4908Z" fill="#4285F4"/>
<path d="M24.1334 26.9995L30.9209 20.0598L16.1756 11.3174C15.6397 10.9886 15.014 10.7996 14.3451 10.7996C12.7067 10.7996 11.3246 11.9397 10.9217 13.4866C10.9217 13.4879 10.9205 13.4891 10.9205 13.4904L24.1334 26.9995Z" fill="#34A853"/>
<path d="M60.0463 14.4398C60.0463 15.7499 59.6576 16.7936 58.8803 17.5709C58.0069 18.4967 56.8584 18.9596 55.4347 18.9596C54.0722 18.9596 52.9193 18.488 51.9761 17.5447C51.0328 16.6014 50.5612 15.4398 50.5612 14.0599C50.5612 12.6799 51.0328 11.5183 51.9761 10.575C52.9193 9.63172 54.0722 9.16009 55.4347 9.16009C56.1247 9.16009 56.7754 9.28236 57.3868 9.52691C57.9981 9.77147 58.5003 10.1165 58.8934 10.5619L58.0287 11.4266C57.7405 11.0772 57.3649 10.8064 56.902 10.6143C56.4479 10.4134 55.9588 10.313 55.4347 10.313C54.4128 10.313 53.5482 10.6667 52.8407 11.3742C52.142 12.0903 51.7926 12.9856 51.7926 14.0599C51.7926 15.1341 52.142 16.0294 52.8407 16.7456C53.5482 17.453 54.4128 17.8067 55.4347 17.8067C56.3692 17.8067 57.1466 17.5447 57.7667 17.0207C58.3868 16.4966 58.7449 15.7761 58.841 14.859H55.4347V13.7323H59.9808C60.0244 13.9769 60.0463 14.2127 60.0463 14.4398ZM66.9869 9.3697V10.5226H62.716V13.4965H66.5677V14.6232H62.716V17.5971H66.9869V18.75H61.5107V9.3697H66.9869ZM71.808 10.5226V18.75H70.6027V10.5226H67.9825V9.3697H74.4282V10.5226H71.808ZM79.7703 18.75H78.565V9.3697H79.7703V18.75ZM84.8578 10.5226V18.75H83.6525V10.5226H81.0323V9.3697H87.478V10.5226H84.8578ZM100.543 14.0599C100.543 15.4486 100.08 16.6102 99.154 17.5447C98.2195 18.488 97.0753 18.9596 95.7215 18.9596C94.359 18.9596 93.2149 18.488 92.2891 17.5447C91.3633 16.6102 90.9004 15.4486 90.9004 14.0599C90.9004 12.6711 91.3633 11.5095 92.2891 10.575C93.2149 9.63172 94.359 9.16009 95.7215 9.16009C97.084 9.16009 98.2282 9.63609 99.154 10.5881C100.08 11.5226 100.543 12.6799 100.543 14.0599ZM92.1319 14.0599C92.1319 15.1429 92.4725 16.0381 93.1537 16.7456C93.8437 17.453 94.6997 17.8067 95.7215 17.8067C96.7434 17.8067 97.595 17.453 98.2762 16.7456C98.9662 16.0468 99.3112 15.1516 99.3112 14.0599C99.3112 12.9681 98.9662 12.0729 98.2762 11.3742C97.595 10.6667 96.7434 10.313 95.7215 10.313C94.6997 10.313 93.8437 10.6667 93.1537 11.3742C92.4725 12.0816 92.1319 12.9768 92.1319 14.0599ZM103.17 18.75H101.965V9.3697H103.432L107.992 16.6669H108.044L107.992 14.859V9.3697H109.197V18.75H107.939L103.17 11.099H103.118L103.17 12.907V18.75Z" fill="white"/>
<path d="M126.249 41.924H128.448V27.0585H126.249V41.924ZM146.055 32.4132L143.534 38.8584H143.459L140.843 32.4132H138.474L142.397 41.421L140.162 46.4321H142.454L148.5 32.4132H146.055ZM133.585 40.2354C132.864 40.2354 131.86 39.8727 131.86 38.9726C131.86 37.8262 133.11 37.3862 134.191 37.3862C135.157 37.3862 135.613 37.5967 136.2 37.8833C136.029 39.2603 134.854 40.2354 133.585 40.2354ZM133.85 32.0886C132.258 32.0886 130.608 32.7961 129.927 34.3646L131.879 35.1863C132.296 34.3646 133.072 34.0959 133.888 34.0959C135.025 34.0959 136.181 34.7844 136.2 36.0092V36.1614C135.802 35.9319 134.95 35.5882 133.907 35.5882C131.803 35.5882 129.661 36.7548 129.661 38.9345C129.661 40.924 131.386 42.2059 133.319 42.2059C134.798 42.2059 135.613 41.5364 136.124 40.7515H136.2V41.8991H138.322V36.1995C138.322 33.5608 136.371 32.0886 133.85 32.0886ZM120.261 34.2231H117.133V29.1276H120.261C121.905 29.1276 122.838 30.5011 122.838 31.6748C122.838 32.827 121.905 34.2231 120.261 34.2231ZM120.204 27.0585H114.936V41.924H117.133V36.2922H120.204C122.641 36.2922 125.037 34.5109 125.037 31.6748C125.037 28.8386 122.641 27.0585 120.204 27.0585ZM91.4737 40.2378C89.9548 40.2378 88.6833 38.9547 88.6833 37.1924C88.6833 35.4111 89.9548 34.1078 91.4737 34.1078C92.9738 34.1078 94.1499 35.4111 94.1499 37.1924C94.1499 38.9547 92.9738 40.2378 91.4737 40.2378ZM93.999 33.2456H93.9224C93.4287 32.6522 92.4801 32.1159 91.284 32.1159C88.7775 32.1159 86.4808 34.3373 86.4808 37.1924C86.4808 40.0273 88.7775 42.2308 91.284 42.2308C92.4801 42.2308 93.4287 41.6945 93.9224 41.0809H93.999V41.8099C93.999 43.7446 92.9738 44.7792 91.3217 44.7792C89.9736 44.7792 89.1381 43.8017 88.7964 42.9776L86.8791 43.7827C87.4295 45.124 88.8918 46.771 91.3217 46.771C93.9036 46.771 96.0872 45.2382 96.0872 41.5031V32.4215H93.999V33.2456ZM97.6061 41.924H99.8085V27.0573H97.6061V41.924ZM103.054 37.02C102.997 35.0662 104.554 34.0697 105.673 34.0697C106.548 34.0697 107.288 34.5097 107.534 35.1423L103.054 37.02ZM109.889 35.3338C109.471 34.2041 108.199 32.1159 105.598 32.1159C103.016 32.1159 100.871 34.1648 100.871 37.1734C100.871 40.0083 102.997 42.2308 105.844 42.2308C108.142 42.2308 109.471 40.8134 110.022 39.9893L108.313 38.8394C107.744 39.6825 106.965 40.2378 105.844 40.2378C104.725 40.2378 103.927 39.7205 103.414 38.7062L110.116 35.9081L109.889 35.3338ZM56.4976 33.6678V35.813H61.5848C61.4328 37.02 61.0345 37.9011 60.4276 38.5136C59.6864 39.2615 58.528 40.0856 56.4976 40.0856C53.3643 40.0856 50.9156 37.5373 50.9156 34.3765C50.9156 31.2146 53.3643 28.6674 56.4976 28.6674C58.1875 28.6674 59.4213 29.3381 60.3322 30.2002L61.8323 28.6864C60.5596 27.4604 58.8709 26.521 56.4976 26.521C52.2071 26.521 48.6 30.0468 48.6 34.3765C48.6 38.7062 52.2071 42.2308 56.4976 42.2308C58.8132 42.2308 60.5596 41.4638 61.9265 40.0273C63.3324 38.6099 63.7684 36.6181 63.7684 35.0079C63.7684 34.5097 63.7307 34.0507 63.6541 33.6678H56.4976ZM69.5531 40.2378C68.0342 40.2378 66.7238 38.9738 66.7238 37.1734C66.7238 35.3528 68.0342 34.1078 69.5531 34.1078C71.0709 34.1078 72.3813 35.3528 72.3813 37.1734C72.3813 38.9738 71.0709 40.2378 69.5531 40.2378ZM69.5531 32.1159C66.7804 32.1159 64.5214 34.2421 64.5214 37.1734C64.5214 40.0856 66.7804 42.2308 69.5531 42.2308C72.3247 42.2308 74.5837 40.0856 74.5837 37.1734C74.5837 34.2421 72.3247 32.1159 69.5531 32.1159ZM80.5276 40.2378C79.0086 40.2378 77.6982 38.9738 77.6982 37.1734C77.6982 35.3528 79.0086 34.1078 80.5276 34.1078C82.0465 34.1078 83.3557 35.3528 83.3557 37.1734C83.3557 38.9738 82.0465 40.2378 80.5276 40.2378ZM80.5276 32.1159C77.756 32.1159 75.497 34.2421 75.497 37.1734C75.497 40.0856 77.756 42.2308 80.5276 42.2308C83.2992 42.2308 85.5582 40.0856 85.5582 37.1734C85.5582 34.2421 83.2992 32.1159 80.5276 32.1159Z" fill="white"/>
</svg>
