<svg width="1319" height="177" viewBox="0 0 1319 177" fill="none" xmlns="http://www.w3.org/2000/svg">
<path d="M45.1776 176.824C36.5955 176.824 28.9039 175.366 22.103 172.452C15.3021 169.375 9.87755 165.003 5.82938 159.336C1.94314 153.506 2.32216e-05 146.463 2.32216e-05 138.204C2.32216e-05 129.946 1.94314 123.064 5.82938 117.559C9.87755 111.891 15.3831 107.681 22.3459 104.928C29.4707 102.014 37.567 100.556 46.6349 100.556H79.6679V93.7554C79.6679 88.088 77.8868 83.4731 74.3244 79.9107C70.762 76.1864 65.0945 74.3242 57.3221 74.3242C49.7115 74.3242 44.0441 76.1054 40.3198 79.6678C36.5955 83.0683 34.1666 87.5212 33.0331 93.0267L4.85782 83.554C6.80094 77.4008 9.87755 71.8144 14.0876 66.7946C18.4597 61.613 24.2081 57.4838 31.3328 54.4072C38.6195 51.1687 47.4445 49.5494 57.8078 49.5494C73.6767 49.5494 86.226 53.5166 95.4558 61.451C104.686 69.3854 109.301 80.8822 109.301 95.9414V140.876C109.301 145.734 111.568 148.163 116.101 148.163H125.817V173.423H105.414C99.423 173.423 94.4842 171.966 90.598 169.051C86.7118 166.137 84.7686 162.25 84.7686 157.393V157.15H80.1537C79.506 159.093 78.0487 161.684 75.7817 164.922C73.5147 167.999 69.9523 170.752 65.0945 173.18C60.2367 175.609 53.5978 176.824 45.1776 176.824ZM50.5211 152.049C59.1033 152.049 66.0661 149.701 71.4097 145.005C76.9152 140.147 79.6679 133.751 79.6679 125.817V123.388H48.8209C43.1535 123.388 38.7005 124.602 35.462 127.031C32.2234 129.46 30.6042 132.861 30.6042 137.233C30.6042 141.605 32.3044 145.167 35.7049 147.92C39.1053 150.673 44.0441 152.049 50.5211 152.049ZM148.193 173.423V3.40033H178.797V97.3988H183.169L223.003 52.9499H262.837L207.216 111.243L264.78 173.423H225.432L183.169 125.574H178.797V173.423H148.193ZM320.326 176.824C311.744 176.824 304.053 175.366 297.252 172.452C290.451 169.375 285.026 165.003 280.978 159.336C277.092 153.506 275.149 146.463 275.149 138.204C275.149 129.946 277.092 123.064 280.978 117.559C285.026 111.891 290.532 107.681 297.495 104.928C304.619 102.014 312.716 100.556 321.784 100.556H354.817V93.7554C354.817 88.088 353.036 83.4731 349.473 79.9107C345.911 76.1864 340.243 74.3242 332.471 74.3242C324.86 74.3242 319.193 76.1054 315.469 79.6678C311.744 83.0683 309.315 87.5212 308.182 93.0267L280.007 83.554C281.95 77.4008 285.026 71.8144 289.236 66.7946C293.608 61.613 299.357 57.4838 306.482 54.4072C313.768 51.1687 322.593 49.5494 332.957 49.5494C348.825 49.5494 361.375 53.5166 370.605 61.451C379.834 69.3854 384.449 80.8822 384.449 95.9414V140.876C384.449 145.734 386.716 148.163 391.25 148.163H400.966V173.423H380.563C374.572 173.423 369.633 171.966 365.747 169.051C361.861 166.137 359.917 162.25 359.917 157.393V157.15H355.303C354.655 159.093 353.197 161.684 350.931 164.922C348.664 167.999 345.101 170.752 340.243 173.18C335.386 175.609 328.747 176.824 320.326 176.824ZM325.67 152.049C334.252 152.049 341.215 149.701 346.558 145.005C352.064 140.147 354.817 133.751 354.817 125.817V123.388H323.97C318.302 123.388 313.849 124.602 310.611 127.031C307.372 129.46 305.753 132.861 305.753 137.233C305.753 141.605 307.453 145.167 310.854 147.92C314.254 150.673 319.193 152.049 325.67 152.049ZM472.429 176.824C456.722 176.824 443.849 173.423 433.809 166.622C423.77 159.821 417.697 150.106 415.592 137.476L443.768 130.189C444.901 135.856 446.763 140.309 449.354 143.548C452.107 146.786 455.426 149.134 459.313 150.592C463.361 151.887 467.733 152.535 472.429 152.535C479.553 152.535 484.816 151.32 488.216 148.891C491.617 146.301 493.317 143.143 493.317 139.419C493.317 135.694 491.698 132.861 488.459 130.918C485.221 128.813 480.039 127.112 472.914 125.817L466.113 124.602C457.693 122.983 450.002 120.797 443.039 118.044C436.076 115.13 430.49 111.163 426.28 106.143C422.069 101.123 419.964 94.646 419.964 86.7116C419.964 74.729 424.336 65.5802 433.08 59.265C441.824 52.788 453.321 49.5494 467.571 49.5494C481.011 49.5494 492.184 52.5451 501.09 58.5364C509.996 64.5277 515.825 72.3811 518.578 82.0967L490.16 90.8407C488.864 84.6875 486.192 80.3155 482.144 77.7247C478.258 75.1338 473.4 73.8384 467.571 73.8384C461.741 73.8384 457.288 74.891 454.212 76.996C451.135 78.9391 449.597 81.6919 449.597 85.2543C449.597 89.1405 451.216 92.0552 454.455 93.9983C457.693 95.7795 462.065 97.1559 467.571 98.1274L474.372 99.3419C483.44 100.961 491.617 103.147 498.904 105.9C506.352 108.491 512.182 112.296 516.392 117.316C520.764 122.174 522.95 128.813 522.95 137.233C522.95 149.863 518.335 159.66 509.105 166.622C500.037 173.423 487.812 176.824 472.429 176.824ZM549.768 173.423V3.40033H580.372V67.7662H584.744C586.04 65.1754 588.064 62.5845 590.817 59.9937C593.569 57.4029 597.213 55.2978 601.747 53.6786C606.443 51.8974 612.353 51.0068 619.478 51.0068C628.869 51.0068 637.047 53.1928 644.01 57.5648C651.134 61.7749 656.64 67.6852 660.526 75.2958C664.412 82.7444 666.355 91.4884 666.355 101.528V173.423H635.751V103.957C635.751 94.8889 633.484 88.088 628.95 83.554C624.578 79.0201 618.263 76.7531 610.005 76.7531C600.613 76.7531 593.327 79.9107 588.145 86.2258C582.963 92.379 580.372 101.042 580.372 112.215V173.423H549.768ZM736.845 176.824C728.263 176.824 720.571 175.366 713.77 172.452C706.969 169.375 701.545 165.003 697.497 159.336C693.61 153.506 691.667 146.463 691.667 138.204C691.667 129.946 693.61 123.064 697.497 117.559C701.545 111.891 707.05 107.681 714.013 104.928C721.138 102.014 729.234 100.556 738.302 100.556H771.335V93.7554C771.335 88.088 769.554 83.4731 765.992 79.9107C762.429 76.1864 756.762 74.3242 748.989 74.3242C741.379 74.3242 735.711 76.1054 731.987 79.6678C728.263 83.0683 725.834 87.5212 724.7 93.0267L696.525 83.554C698.468 77.4008 701.545 71.8144 705.755 66.7946C710.127 61.613 715.875 57.4838 723 54.4072C730.287 51.1687 739.112 49.5494 749.475 49.5494C765.344 49.5494 777.893 53.5166 787.123 61.451C796.353 69.3854 800.968 80.8822 800.968 95.9414V140.876C800.968 145.734 803.235 148.163 807.769 148.163H817.484V173.423H797.082C791.09 173.423 786.151 171.966 782.265 169.051C778.379 166.137 776.436 162.25 776.436 157.393V157.15H771.821C771.173 159.093 769.716 161.684 767.449 164.922C765.182 167.999 761.62 170.752 756.762 173.18C751.904 175.609 745.265 176.824 736.845 176.824ZM742.188 152.049C750.77 152.049 757.733 149.701 763.077 145.005C768.582 140.147 771.335 133.751 771.335 125.817V123.388H740.488C734.821 123.388 730.368 124.602 727.129 127.031C723.891 129.46 722.271 132.861 722.271 137.233C722.271 141.605 723.972 145.167 727.372 147.92C730.773 150.673 735.711 152.049 742.188 152.049ZM839.861 173.423V52.9499H869.979V66.5517H874.351C876.132 61.6939 879.047 58.1315 883.095 55.8646C887.305 53.5976 892.163 52.4641 897.668 52.4641H912.242V79.6678H897.183C889.41 79.6678 883.014 81.7728 877.994 85.9829C872.975 90.0311 870.465 96.3462 870.465 104.928V173.423H839.861ZM986.786 176.824C974.804 176.824 964.197 174.314 954.968 169.294C945.9 164.113 938.775 156.907 933.593 147.677C928.574 138.285 926.064 127.274 926.064 114.644V111.729C926.064 99.099 928.574 88.1689 933.593 78.9391C938.613 69.5474 945.657 62.3416 954.725 57.3219C963.793 52.1403 974.318 49.5494 986.3 49.5494C998.121 49.5494 1008.4 52.2212 1017.15 57.5648C1025.89 62.7465 1032.69 70.0332 1037.55 79.4249C1042.41 88.6547 1044.84 99.4229 1044.84 111.729V122.174H957.154C957.477 130.432 960.554 137.152 966.383 142.333C972.213 147.515 979.338 150.106 987.758 150.106C996.34 150.106 1002.66 148.244 1006.7 144.519C1010.75 140.795 1013.83 136.666 1015.93 132.132L1040.95 145.248C1038.68 149.458 1035.36 154.073 1030.99 159.093C1026.78 163.951 1021.11 168.161 1013.99 171.723C1006.87 175.124 997.797 176.824 986.786 176.824ZM957.396 99.3419H1013.75C1013.1 92.379 1010.27 86.7926 1005.25 82.5825C1000.39 78.3724 993.992 76.2673 986.058 76.2673C977.799 76.2673 971.241 78.3724 966.383 82.5825C961.526 86.7926 958.53 92.379 957.396 99.3419ZM1072.08 173.423V3.40033H1102.68V173.423H1072.08ZM1136.59 173.423V52.9499H1167.2V173.423H1136.59ZM1151.9 38.8623C1146.39 38.8623 1141.69 37.0811 1137.81 33.5187C1134.08 29.9563 1132.22 25.2604 1132.22 19.4311C1132.22 13.6017 1134.08 8.90584 1137.81 5.34345C1141.69 1.78106 1146.39 -0.000130955 1151.9 -0.000130955C1157.56 -0.000130955 1162.26 1.78106 1165.98 5.34345C1169.71 8.90584 1171.57 13.6017 1171.57 19.4311C1171.57 25.2604 1169.71 29.9563 1165.98 33.5187C1162.26 37.0811 1157.56 38.8623 1151.9 38.8623ZM1257.71 176.824C1246.05 176.824 1235.44 174.395 1225.89 169.537C1216.49 164.679 1209.05 157.635 1203.54 148.406C1198.04 139.176 1195.28 128.003 1195.28 114.887V111.486C1195.28 98.3703 1198.04 87.1974 1203.54 77.9676C1209.05 68.7377 1216.49 61.6939 1225.89 56.8361C1235.44 51.9783 1246.05 49.5494 1257.71 49.5494C1269.2 49.5494 1279.08 51.5735 1287.34 55.6217C1295.6 59.6699 1302.24 65.2563 1307.25 72.3811C1312.44 79.3439 1315.84 87.2783 1317.46 96.1843L1287.82 102.499C1287.18 97.6417 1285.72 93.2696 1283.45 89.3834C1281.18 85.4972 1277.95 82.4206 1273.74 80.1536C1269.69 77.8866 1264.59 76.7531 1258.43 76.7531C1252.28 76.7531 1246.69 78.1295 1241.67 80.8822C1236.82 83.4731 1232.93 87.4403 1230.02 92.7839C1227.26 97.9655 1225.89 104.362 1225.89 111.972V114.401C1225.89 122.012 1227.26 128.489 1230.02 133.832C1232.93 139.014 1236.82 142.981 1241.67 145.734C1246.69 148.325 1252.28 149.62 1258.43 149.62C1267.66 149.62 1274.63 147.272 1279.32 142.576C1284.18 137.719 1287.26 131.403 1288.55 123.631L1318.18 130.675C1316.08 139.257 1312.44 147.11 1307.25 154.235C1302.24 161.198 1295.6 166.703 1287.34 170.752C1279.08 174.8 1269.2 176.824 1257.71 176.824Z" fill="#F5F5F5"/>
</svg>
